<?xml version="1.0" standalone="no"?>
<!DOCTYPE svg PUBLIC "-//W3C//DTD SVG 20010904//EN"
 "http://www.w3.org/TR/2001/REC-SVG-20010904/DTD/svg10.dtd">
<svg version="1.0" xmlns="http://www.w3.org/2000/svg"
 width="1000.000000pt" height="1000.000000pt" viewBox="0 0 1000.000000 1000.000000"
 preserveAspectRatio="xMidYMid meet">
<metadata>
Created by potrace 1.14, written by Peter Selinger 2001-2017
</metadata>
<g transform="translate(0.000000,1000.000000) scale(0.100000,-0.100000)"
fill="#000000" stroke="none">
<path d="M0 5000 l0 -5000 5000 0 5000 0 0 5000 0 5000 -5000 0 -5000 0 0
-5000z m9000 0 l0 -4000 -4000 0 -4000 0 0 4000 0 4000 4000 0 4000 0 0 -4000z"/>
<path d="M2502 6998 l-142 -143 282 -282 283 -283 -283 -283 -282 -282 140
-140 140 -140 283 283 282 282 283 -282 282 -283 142 143 143 142 -283 283
-282 282 282 282 283 283 -140 140 -140 140 -282 -282 -283 -283 -283 283
-282 282 -143 -142z"/>
<path d="M6082 6998 l-142 -143 282 -282 283 -283 -283 -283 -282 -282 140
-140 140 -140 283 283 282 282 283 -282 282 -283 142 143 143 142 -283 283
-282 282 282 282 283 283 -140 140 -140 140 -282 -282 -283 -283 -283 283
-282 282 -143 -142z"/>
<path d="M5000 3440 c-795 -214 -1445 -392 -1444 -397 1 -4 23 -91 49 -191 48
-183 49 -184 74 -178 49 9 2864 766 2868 770 4 3 -94 377 -100 382 -1 1 -652
-173 -1447 -386z"/>
</g>
</svg>
