<svg xmlns="http://www.w3.org/2000/svg" width="842" height="160" fill="none" xmlns:v="https://vecta.io/nano"><g clip-path="url(#A)"><g fill="#fff"><path d="M225.341 106.519l1.404 7.256 1.873-7.646 20.287-64.608h7.959l20.053 64.061 2.185 8.896 1.795-8.193 17.322-64.764h9.675l-24.578 84.427h-7.959L253.665 59l-1.014-4.604-1.015 4.682-21.301 66.87h-7.959l-24.501-84.427h9.597l17.869 64.998zM358.3 127.508c-7.178 0-13.681-1.768-19.507-5.306-5.774-3.537-10.273-8.453-13.498-14.747-3.226-6.346-4.838-13.447-4.838-21.302v-3.355c0-8.115 1.56-15.423 4.682-21.926 3.173-6.502 7.568-11.6 13.186-15.294 5.618-3.745 11.704-5.618 18.259-5.618 10.247 0 18.362 3.511 24.344 10.534 6.035 6.971 9.052 16.516 9.052 28.636v5.228h-60.238v1.795c0 9.571 2.731 17.557 8.193 23.955 5.514 6.346 12.433 9.519 20.756 9.519 4.993 0 9.389-.91 13.186-2.731 3.85-1.82 7.335-4.733 10.456-8.739l5.852 4.448c-6.866 9.935-16.828 14.903-29.885 14.903zm-1.716-79.588c-7.023 0-12.953 2.575-17.791 7.725-4.785 5.15-7.698 12.068-8.739 20.755h50.64v-1.014c-.26-8.115-2.575-14.721-6.944-19.819s-10.092-7.647-17.166-7.647zm87.625 79.588c-12.953 0-23.434-3.849-31.445-11.548-8.011-7.751-12.016-17.816-12.016-30.197v-2.185c0-8.635 1.586-16.256 4.759-22.862 3.225-6.606 7.907-11.704 14.045-15.293 6.138-3.641 13.421-5.462 21.848-5.462 11.86 0 21.224 3.693 28.09 11.08 6.867 7.335 10.3 17.582 10.3 30.743v10.222h-52.279c.936 4.734 2.991 8.454 6.164 11.157s7.283 4.058 12.329 4.058c8.323 0 14.825-2.913 19.507-8.739l12.016 14.201c-3.277 4.526-7.933 8.141-13.967 10.846-5.982 2.653-12.432 3.979-19.351 3.979zm-2.965-67.26c-7.699 0-12.276 5.098-13.733 15.294h26.53v-2.029c.104-4.213-.963-7.465-3.2-9.754-2.236-2.341-5.435-3.511-9.597-3.511zm83.412 4.526l12.25-23.252h27.31l-22.238 41.121 23.33 43.306h-27.465l-13.265-24.969-13.031 24.969h-27.622l23.409-43.306-22.16-41.121h27.622l11.86 23.252zm126.405 19.585c0 13.109-2.965 23.59-8.895 31.445-5.878 7.803-13.837 11.704-23.877 11.704-7.75 0-14.123-2.835-19.116-8.505v39.404h-26.296V41.521h24.579l.78 7.803c5.046-6.242 11.678-9.363 19.897-9.363 10.404 0 18.493 3.849 24.267 11.548 5.774 7.647 8.661 18.18 8.661 31.601v1.249zm-26.295-1.639c0-14.981-4.37-22.472-13.109-22.472-6.242 0-10.404 2.237-12.484 6.71v33.239c2.288 4.682 6.502 7.023 12.64 7.023 8.375 0 12.693-7.231 12.953-21.692V82.72zm65.699 43.228h-26.373V41.521h26.373v84.427zM662.531 19.752c0-3.745 1.353-6.814 4.058-9.207s6.216-3.589 10.533-3.589 7.829 1.196 10.534 3.589 4.058 5.462 4.058 9.207-1.353 6.814-4.058 9.207-6.216 3.589-10.534 3.589-7.828-1.196-10.533-3.589-4.058-5.462-4.058-9.207zm95.272 45.568l-8.661-.624c-8.271 0-13.577 2.601-15.918 7.803v53.449h-26.295V41.521h24.657l.858 10.846c4.422-8.271 10.586-12.406 18.493-12.406 2.809 0 5.254.312 7.334.936l-.468 24.423zm48.768 62.188c-12.953 0-23.435-3.849-31.446-11.548-8.01-7.751-12.016-17.816-12.016-30.197v-2.185c0-8.635 1.587-16.256 4.76-22.862 3.225-6.606 7.907-11.704 14.045-15.293 6.138-3.641 13.421-5.462 21.848-5.462 11.86 0 21.223 3.693 28.09 11.08 6.866 7.335 10.299 17.582 10.299 30.743v10.222h-52.278c.936 4.734 2.991 8.454 6.164 11.157s7.283 4.058 12.328 4.058c8.323 0 14.826-2.913 19.507-8.739l12.017 14.201c-3.278 4.526-7.933 8.141-13.967 10.846-5.982 2.653-12.433 3.979-19.351 3.979zm-2.965-67.26c-7.699 0-12.277 5.098-13.733 15.294h26.529v-2.029c.104-4.213-.962-7.465-3.199-9.754-2.237-2.341-5.436-3.511-9.597-3.511z"/></g><g stroke="#fff"><path d="M103.881 101.713l-46.307 12.408M62.55 47.94l-11.3 11.3m0 0l-11.3 11.3m11.3-11.3l-11.3-11.3m11.3 11.3l11.3 11.3m57.208-22.599l-11.299 11.3m0 0l-11.3 11.3m11.3-11.3l-11.3-11.3m11.3 11.3l11.299 11.3" stroke-width="6.392"/><path stroke-width="15.98" d="M7.99 7.99h143.821v143.821H7.99z"/></g></g><defs><clipPath id="A"><path fill="#fff" d="M0 0h842v160H0z"/></clipPath></defs></svg>