<svg width="128" height="33" viewBox="0 0 128 33" fill="none" xmlns="http://www.w3.org/2000/svg">
<g clip-path="url(#clip0_2753_186)">
<path d="M124.365 0.33468C122.189 0.33468 120.653 1.33875 120.653 1.33875V15.5503C120.653 15.5503 119.885 18.8714 117.35 18.8714C114.842 18.8714 114.842 16.2196 114.842 16.2196C114.842 16.2196 114.816 4.40247 114.816 1.26152C114.816 1.26152 113.382 0.308935 111.206 0.308935C109.005 0.308935 107.494 1.31301 107.494 1.31301C107.494 1.31301 107.494 9.26836 107.494 13.3876C106.65 15.0096 103.962 19.1289 98.6624 19.1289C93.9008 19.1289 92.4416 14.5977 92.4416 10.9161C92.4416 6.64232 93.44 1.23577 95.7696 1.23577C96.7424 1.23577 97.0496 2.60028 97.0496 3.88756C97.0496 6.66807 96.512 10.6329 93.7472 12.847C93.7472 12.847 93.6448 13.1559 93.7984 13.5164C93.9264 13.8253 94.208 13.9026 94.208 13.9026C96.6144 13.9798 104.294 11.0963 104.294 5.99869C104.294 1.59621 99.456 -0.0257568 95.488 -0.0257568C90.0864 -0.0257568 84.608 4.11927 84.8896 11.7657C84.9664 13.7481 85.4272 15.3958 86.1184 16.7088C85.1712 17.6614 83.712 18.9487 82.6368 18.9487C81.1776 18.9487 81.2544 17.3524 81.2544 17.3524C81.2544 17.3524 81.2544 11.3795 81.2544 7.82662C81.2544 2.83199 76.7744 -0.0257568 72.5248 -0.0257568C66.7904 -1.13491e-05 64.768 3.78458 64.768 3.78458C64.768 5.27781 63.8208 8.2128 60.8 9.47433V20.8538C60.8 20.8538 62.3104 21.8579 64.4096 21.8579C66.688 21.8579 68.1472 20.8796 68.1472 20.8796V6.61658C68.1472 6.61658 68.6336 3.86181 71.3728 3.86181C73.9072 3.86181 74.0352 6.5136 74.0352 6.5136C74.0352 6.5136 74.0352 13.2589 74.0352 16.3999C74.0352 20.1587 76.5952 21.9609 79.744 21.9609C82.688 21.9609 85.4784 19.3863 86.912 17.8159C89.1904 20.9053 93.0816 21.9609 96.2816 21.9609C101.965 21.9609 105.933 18.6655 107.802 16.7603C108.518 20.2874 111.053 21.9609 115.302 21.9609C117.811 21.9609 119.654 20.5964 120.73 19.4636C120.73 20.133 120.73 20.9053 120.73 21.7807C120.73 28.1913 118.298 31.2293 115.635 31.2293C114.509 31.2293 113.971 30.6886 113.971 29.9677C113.971 28.5775 114.842 28.6547 114.842 26.8525C114.842 24.4067 112.794 23.2739 111.283 23.2739C109.798 23.2739 107.725 24.4582 107.725 26.8525C107.725 29.736 110.285 32.568 115.123 32.568C121.062 32.568 128.077 28.3458 128.077 20.5449C128.077 13.6708 128.077 1.31301 128.077 1.31301C128.077 1.31301 126.541 0.33468 124.365 0.33468Z" fill="#0B0B0C"></path>
<path d="M61.824 2.832C61.44 0.617893 59.4176 -0.360436 56.3968 0.154474C54.4256 0.489165 52.9408 1.18429 51.7888 2.03389C50.7136 0.823857 48.5376 0.386183 44.2624 0.386183V0.489165C45.6192 0.489165 45.3888 3.11521 45.3888 4.0163C45.3888 4.47972 45.3888 11.7657 45.3888 16.6058C44.416 17.5842 42.8288 19.0002 41.7024 19.0002C40.2944 19.0002 40.448 17.404 40.448 17.404C40.448 17.404 40.448 10.1695 40.448 6.61659C40.448 4.81441 39.9104 0.0257464 30.2592 0.0257464C26.368 8.62405e-07 22.0672 2.72902 22.0672 5.7155C22.0672 7.9811 23.936 9.29412 25.6256 9.29412C27.392 9.29412 29.184 7.95536 29.184 5.7155C29.184 3.37266 27.5456 3.06371 27.5456 1.95666C27.5456 1.36451 28.7232 1.02982 29.8752 1.02982C31.7952 1.02982 33.2032 2.49731 33.2032 5.20059C33.2032 5.86997 33.1776 7.1315 32.4864 7.67216C28.6976 10.5299 21.7344 9.9635 21.3248 16.1424C19.6608 17.5069 16.9472 19.1546 13.7728 19.1546C9.5488 19.1546 7.5776 15.5245 7.5776 10.6071C7.5776 6.35914 10.0352 1.05557 12.1856 1.05557C12.672 1.05557 13.1328 1.31302 13.1328 1.95666C13.1328 3.29542 11.5968 3.4499 11.5968 5.7155C11.5968 7.74939 13.2352 9.29412 15.1552 9.29412C16.9984 9.29412 18.7136 7.80088 18.7136 5.7155C18.688 2.83201 16.1792 8.62405e-07 11.3664 8.62405e-07C4.992 8.62405e-07 0 4.22226 0 11.1993C0 18.717 5.5552 21.9352 10.8544 21.9352C15.7184 21.9352 19.3024 20.03 21.5296 18.305C22.1184 20.9826 24.2176 21.9352 26.2656 21.9352C29.8496 21.9352 32.5888 19.3091 33.408 18.408C34.0224 20.4934 35.6352 21.9352 38.0928 21.9352C41.088 21.9352 43.8016 19.8498 45.4144 18.305C45.4144 19.8498 45.4144 20.8538 45.4144 20.8538C45.4144 20.8538 46.9248 21.8322 48.9984 21.8322C51.2 21.8322 52.736 20.8538 52.736 20.8538C52.736 20.8538 52.736 9.3971 52.736 5.48379C52.736 4.76292 52.6848 4.11928 52.5568 3.57862C52.864 3.26968 53.2224 3.08946 53.6064 3.08946C54.1696 3.08946 54.8352 3.42415 54.9376 4.0163C55.2192 5.81848 56.7808 7.33747 58.9824 6.92554C60.7232 6.66808 62.208 4.96888 61.824 2.832ZM30.6432 17.8159C29.6448 17.8159 28.6464 16.9148 28.6464 14.5719C28.6464 10.4269 32.7936 9.55158 33.1264 9.50009L33.1008 16.3999C33.1008 16.4256 33.1008 16.4771 33.1008 16.5029C32.9216 16.7603 32.0512 17.8159 30.6432 17.8159Z" fill="#0B0B0C"></path>
</g>
<defs>
<clipPath id="clip0_2753_186">
<rect width="128" height="32.568" fill="white"></rect>
</clipPath>
</defs>
</svg>