<svg xmlns="http://www.w3.org/2000/svg" xmlns:xlink="http://www.w3.org/1999/xlink" version="1.1" xml:space="preserve" enable-background="new 0 0 356 228" width="295" height="42" style=""><rect id="backgroundrect" width="100%" height="100%" x="0" y="0" fill="none" stroke="none"/>
  
<g class="currentLayer" style=""><title>Layer 1</title><g id="svg_1" class="">
    <path d="M259.5000003814697,5.500004577636716 c0,-2.9 0.9,-3.9 2.4,-3.9 c1.5,0 2.7,0.6000000000000001 4.1,3.9 l8.5,19.3 v12.2 c0,2.9 -1.2,3.7 -4.5,4.1 v0.8 h15.7 v-0.8 c-3.4,-0.4 -4.5,-1.3 -4.5,-4.1 v-12.2 l8.2,-18.6 c1.6,-3.6 3.2,-4.4 5.6,-4.8 v-0.8 h-11.5 v0.8 c3.9,0.4 5.3,1.5 4.2,4.1 l-7.2,16.5 l-7.4,-16.9 c-1,-2.3 -0.4,-3 3.9,-3.6 v-0.8 h-24.7 v0.8 c3.9,0.6000000000000001 5.1,1.3 5.1,4.1 v22.6 l-18.1,-27.5 h-8.9 v0.8 c2.9,0.4 3.8,1.3 3.8,4.1 v31.5 c0,2.9 -0.8,3.9 -1.8,3.9 c-0.9,0 -1.4,-0.4 -2.7,-3.9 l-13.4,-36.6 h-0.8 l-12.9,35 c-1.4,3.9 -3.6,5.2 -5.8,5.7 v0.8 h11.8 v-0.8 c-4.1,-0.4 -5.4,-2 -4.5,-4.6 l2.9,-8 h12.2 l2.8,7.5 c1.2,3.4 0.5,4.4 -3,5 v0.8 h22.4 v-0.8 c-3.9,-0.6000000000000001 -5.1,-1.3 -5.1,-4.1 v-28.2 l21.9,33.2 h1.3 L259.5000003814697,5.500004577636716 L259.5000003814697,5.500004577636716 zM101.60000038146973,21.20000457763672 c0,-12.8 6.1,-19.5 13.2,-19.5 c4.2,0 6.9,0.9 8.5,2.6 c1.2,1.2 2.1,2.9 3.1,5.6 h0.8 v-8.6 c-4.1,-0.8 -7.8,-1.3 -11.5,-1.3 c-10.7,0 -21.8,6.9 -21.8,21.2 s11.1,21.2 21.1,21.2 c4.4,0 8.3,-0.7000000000000001 12,-1.8 l1.2,-8.1 l-0.7000000000000001,-0.2 c-0.9,1.7000000000000002 -2,3.2 -3.2,4.5 c-2.6,2.6 -6.1,4 -9.6,4 C107.90000038146974,40.70000457763672 101.60000038146973,34.20000457763672 101.60000038146973,21.20000457763672 zM190.30000038146972,22.40000457763672 c-0.9,0 -2.1,-0.1 -3.3,-0.30000000000000004 v-20 h3.3 c5.5,0 7.9,2.9 7.9,10.1 C198.20000038146972,19.500004577636716 195.70000038146972,22.40000457763672 190.30000038146972,22.40000457763672 zM61.80000038146973,0.6000045776367244 v9.9 h0.8 c1.2,-6.3 3.7,-8.3 7.9,-8.3 h2 v34.8 c0,2.9 -1.2,3.7 -4.5,4.1 v0.8 h15.7 v-0.8 c-3.4,-0.4 -4.5,-1.3 -4.5,-4.1 V2.1000045776367244 h2 c4.2,0 6.7,2 7.9,8.3 h0.8 v-9.9 H61.80000038146973 zM49.30000038146973,42.40000457763671 c6.8,0 14,-3.9 14,-11.9 c0,-4.7 -2.5,-8.6 -6.9,-11 l-7.8,-4.3 c-4.1,-2.3 -5.3,-4.4 -5.3,-7.4 c0,-3.4 2.5,-6.1 7.2,-6.1 c2.3,0 4,0.6000000000000001 5.4,1.9 c1.2,1.2 2.4,3.2 3.5,6.8 H60.10000038146973 v-9.1 c-2.8,-0.8 -5.7,-1.3 -9.1,-1.3 c-6.7,0 -11.7,4.2 -11.7,11.3 c0,4.5 2.5,8.6 6.6,11 l7.2,4 c4.1,2.3 5.4,4.5 5.4,7.8 c0,3.9 -4,6.7 -8.4,6.7 c-2.9,0 -5.3,-1 -7,-2.7 c-1.1,-1.1 -2.3,-2.8 -3.1,-5 h4.7 v-0.8 c-1.3,-0.30000000000000004 -2.1,-0.5 -3.2,-3.1 l-9.2,-21.9 h-0.8 l-9,21.4 c-1.2,2.9 -2,3.4 -3.4,3.6 v0.8 H27.100000381469727 v-0.8 c-2.9,-0.30000000000000004 -3.7,-1.7000000000000002 -3,-3.5 l1.4,-3.4 h8.1 l1.8,4.2 c0.8,1.9 -0.4,2.4 -3.3,2.6 v0.8 h6.4 v7.9 C41.70000038146972,41.80000457763671 45.80000038146973,42.40000457763671 49.30000038146973,42.40000457763671 zM150.90000038146974,42.00000457763673 l11.9,-33.1 l0.9,28.2 c0.1,2.8 -1,3.6 -4.4,4 v0.8 H192.10000038146973 v-0.8 c-3.9,-0.6000000000000001 -5.1,-1.3 -5.1,-4.1 V23.70000457763672 c1.3,0.2 2.6,0.30000000000000004 3.6,0.30000000000000004 c7.9,0 14.7,-2.9 14.7,-11.7 c0,-8.8 -6.8,-11.7 -14.7,-11.7 h-14.1 v0.8 c2.9,0.4 3.8,1.3 3.8,4.1 v31.5 c0,2.9 -1.2,4.1 -4.5,4.1 h-0.1 c-3.5,0 -5,-1.3 -5.1,-4 l-1.2,-31.5 c-0.1,-2.9 0.9,-3.8 4,-4.2 v-0.8 h-9.7 L153.10000038146973,30.300004577636713 l-10.6,-29.7 H132.10000038146973 v0.8 c3.1,0.4 4.1,1.4 4,4.2 l-1.1,30.2 c-0.1,3 -1.7000000000000002,4.8 -4.6,5.3 v0.8 h11 v-0.8 c-2.8,-0.4 -4.4,-2.2 -4.3,-5.3 l0.9,-27.5 l12.1,33.6 L150.90000038146974,42.00000457763673 L150.90000038146974,42.00000457763673 zM119.00000038146973,33.30000457763671 c5.3,0 12.1,-4.7 12.1,-12.1 c0,-7.3 -6.7,-12.1 -12.1,-12.1 c-5.3,0 -12.1,4.7 -12.1,12.1 C106.90000038146974,28.500004577636716 113.60000038146973,33.30000457763671 119.00000038146973,33.30000457763671 zM119.00000038146973,10.800004577636713 c3.4,0 5.7,2.8 5.7,10.4 c0,7.7 -2.4,10.4 -5.7,10.4 c-3.4,0 -5.7,-2.8 -5.7,-10.4 C113.30000038146972,13.500004577636716 115.60000038146973,10.800004577636713 119.00000038146973,10.800004577636713 zM218.70000038146972,26.90000457763672 h-11.1 L213.10000038146973,11.700004577636719 L218.70000038146972,26.90000457763672 zM33.10000038146973,23.800004577636713 h-6.8 l3.4,-8.3 L33.10000038146973,23.800004577636713 zM20.100000381469727,25.90000457763672 h0.8 v-12.4 H20.100000381469727 c-1.3,4.4 -2.6,5.4 -5,5.4 h-4.6 V2.1000045776367244 h7.3 c4.2,0 6.7,2 7.9,8.3 h0.8 v-9.9 H3.8146972514141453e-7 v0.8 c2.9,0.4 3.8,1.3 3.8,4.1 v31.5 c0,2.9 -0.9,3.7 -3.8,4.1 v0.8 h15.6 v-0.8 c-3.9,-0.6000000000000001 -5.1,-1.3 -5.1,-4.1 v-16.5 H15.100000381469727 C17.400000381469724,20.500004577636716 18.80000038146973,21.500004577636716 20.100000381469727,25.90000457763672 z" id="svg_2"/>
  </g></g></svg>