<svg fill="none" xmlns="http://www.w3.org/2000/svg" viewBox="0 0 182 124">
  <defs/>
  <g opacity=".93" clip-path="url(#logo_fm93_color_default__clip0)">
    <path d="M91 9.183a53.153 53.153 0 0122.76 5.098 52.93 52.93 0 0118.352 14.341h11.345a62.174 62.174 0 00-28.221-23.729 62.481 62.481 0 00-36.17-3.743 62.317 62.317 0 00-32.095 17.02 62.388 62.388 0 00-8.432 10.456h11.347a52.927 52.927 0 0118.352-14.344A53.149 53.149 0 0191 9.183z" fill="url(#logo_fm93_color_default__paint0_linear)"/>
    <path d="M91 114.843a53.129 53.129 0 01-22.762-5.099 52.905 52.905 0 01-18.35-14.347h-11.35a62.199 62.199 0 0028.226 23.738 62.48 62.48 0 0042.704 2.097 62.204 62.204 0 0033.985-25.835H132.11a52.917 52.917 0 01-18.349 14.346 53.14 53.14 0 01-22.761 5.1z" fill="url(#logo_fm93_color_default__paint1_linear)"/>
    <path d="M93.105 42.988a4.887 4.887 0 00-3.922 2.276c-.038.049-.072.1-.109.137a17.444 17.444 0 00-1.173 1.726L72.039 74.123l-.024.042a4.564 4.564 0 01-1.082 1.463 4.48 4.48 0 01-1.089-1.46L53.961 47.123a17.48 17.48 0 00-1.179-1.724c-.03-.038-.064-.088-.1-.137a4.87 4.87 0 00-1.68-1.621 4.894 4.894 0 00-2.245-.655c-3.98 0-5.399 2.26-5.399 4.38v31.32c.001.54.217 1.057.6 1.439.384.382.903.596 1.446.598h1.045a2.045 2.045 0 001.43-.58c.383-.372.603-.88.614-1.411l.006-29.492a1.83 1.83 0 01.034-.406.365.365 0 01.216-.054.616.616 0 01.357.198c.2.193.37.415.507.657L65.4 76.687c.765 1.307 2.567 4.355 5.532 4.355 2.964 0 4.766-3.048 5.534-4.355l15.79-27.062a2.7 2.7 0 01.495-.642.623.623 0 01.357-.197.355.355 0 01.24.077c0 .056.013.173.013.38v29.49c.013.533.235 1.04.618 1.411.383.372.897.58 1.431.58h1.047a2.047 2.047 0 002.045-2.037V47.37c.003-2.12-1.412-4.381-5.398-4.381z" fill="url(#logo_fm93_color_default__paint2_linear)"/>
    <path d="M35.498 43.09H8.02a11.737 11.737 0 00-5.751 1.197C.765 45.142 0 46.673 0 48.828v29.86c.001.54.218 1.058.602 1.44.384.382.905.596 1.447.597h1.047a2.057 2.057 0 001.409-.563c.38-.36.607-.852.635-1.373V64.468h21.63a2.058 2.058 0 001.446-.598c.384-.382.6-.9.602-1.439v-1.043a2.039 2.039 0 00-.602-1.44 2.056 2.056 0 00-1.446-.597H5.141v-9.273a1.893 1.893 0 01.441-1.464c.146-.12.671-.405 2.47-.405h27.446a2.058 2.058 0 001.445-.598c.384-.382.6-.899.603-1.438v-1.041a2.041 2.041 0 00-.601-1.442 2.058 2.058 0 00-1.447-.6z" fill="url(#logo_fm93_color_default__paint3_linear)"/>
    <path d="M138.419 45.743c-2.222-1.756-5.813-2.653-10.683-2.653h-8.647a26.815 26.815 0 00-7.14.802 11.142 11.142 0 00-4.56 2.401 8.696 8.696 0 00-2.396 3.822 16.53 16.53 0 00-.668 4.858c0 3.83 1.177 6.83 3.391 8.68 2.214 1.851 5.889 2.788 10.924 2.792h10.5c2.98 0 6.889-.395 7.55-1.679v5.737a4.226 4.226 0 01-1.837 3.771c-1.287.885-3.176 1.33-5.624 1.33h-19.672c-.543 0-1.064.214-1.448.596-.384.382-.601.9-.601 1.44v1.046c.001.54.218 1.059.602 1.44.384.382.904.597 1.447.597h18.787a21.618 21.618 0 005.769-.697 12.458 12.458 0 004.26-2.024 8.543 8.543 0 002.603-3.19 9.537 9.537 0 00.848-4.047V53.674c0-3.47-1.143-6.137-3.405-7.93zm-1.732 10.337l-.013-.012c0 1.818-.487 3.113-1.499 3.96-1.028.863-3.058 1.296-6.038 1.296h-11.081c-3.389-.015-5.699-.542-6.856-1.57-1.122-.995-1.74-2.695-1.74-4.78 0-2.231.55-3.936 1.621-5.073 1.075-1.122 3.214-1.692 6.367-1.692h11.7c2.981 0 5.01.433 6.034 1.291 1.012.852 1.504 2.148 1.504 3.964l.001 2.616z" fill="url(#logo_fm93_color_default__paint4_linear)"/>
    <path d="M179.481 61.905c1.676-1.155 2.519-4.027 2.519-8.597a14.491 14.491 0 00-.6-4.37 7.132 7.132 0 00-2.1-3.257 9.82 9.82 0 00-3.916-1.946 23.353 23.353 0 00-5.962-.646h-19.733a2.06 2.06 0 00-1.448.6c-.384.382-.6.9-.602 1.441v1.042c.003.532.213 1.042.586 1.422.373.38.88.601 1.414.616h21.503a8.948 8.948 0 013.16.452c.645.223 1.216.62 1.652 1.144a3.78 3.78 0 01.724 1.672c.118.726.177 1.46.176 2.196.02.928-.085 1.855-.311 2.756a3.264 3.264 0 01-1.072 1.626 5.198 5.198 0 01-2.215.973c-1.271.24-2.564.349-3.858.326h-19.756a2.06 2.06 0 00-1.415.614c-.373.38-.583.89-.585 1.423v1.041a2.047 2.047 0 002.05 2.037H169.4a18.703 18.703 0 013.859.325c.806.145 1.566.48 2.218.975.514.42.887.986 1.068 1.623.227.9.331 1.825.311 2.752 0 .735-.059 1.47-.176 2.196a3.874 3.874 0 01-.721 1.672 3.84 3.84 0 01-1.657 1.141 8.816 8.816 0 01-3.159.455h-21.505a2.062 2.062 0 00-1.413.616c-.373.38-.583.89-.586 1.421v1.046a2.04 2.04 0 00.603 1.439c.384.382.903.596 1.446.598h19.735a23.195 23.195 0 005.963-.65 9.63 9.63 0 003.916-1.942c.987-.873 1.714-2 2.1-3.256a14.53 14.53 0 00.598-4.376c0-4.567-.843-7.449-2.519-8.6z" fill="url(#logo_fm93_color_default__paint5_linear)"/>
  </g>
  <defs>
    <linearGradient id="logo_fm93_color_default__paint0_linear" x1="41.552" y1="2.722" x2="198.582" y2="65.602" gradientUnits="userSpaceOnUse">
      <stop stop-color="#00ADEE"/>
      <stop offset="1" stop-color="#0054A5"/>
    </linearGradient>
    <linearGradient id="logo_fm93_color_default__paint1_linear" x1="1947.13" y1="2725.25" x2="9786.35" y2="14180.3" gradientUnits="userSpaceOnUse">
      <stop stop-color="#00ADEE"/>
      <stop offset="1" stop-color="#0054A5"/>
    </linearGradient>
    <linearGradient id="logo_fm93_color_default__paint2_linear" x1="1816.06" y1="2207.13" x2="11502.5" y2="7803.56" gradientUnits="userSpaceOnUse">
      <stop stop-color="#00ADEE"/>
      <stop offset="1" stop-color="#0054A5"/>
    </linearGradient>
    <linearGradient id="logo_fm93_color_default__paint3_linear" x1="868.056" y1="3036.55" x2="8463.39" y2="6056.83" gradientUnits="userSpaceOnUse">
      <stop stop-color="#00ADEE"/>
      <stop offset="1" stop-color="#0054A5"/>
    </linearGradient>
    <linearGradient id="logo_fm93_color_default__paint4_linear" x1="1647.37" y1="1334.59" x2="9235.12" y2="4348.73" gradientUnits="userSpaceOnUse">
      <stop stop-color="#00ADEE"/>
      <stop offset="1" stop-color="#0054A5"/>
    </linearGradient>
    <linearGradient id="logo_fm93_color_default__paint5_linear" x1="1807.5" y1="657.111" x2="8916.92" y2="3244.44" gradientUnits="userSpaceOnUse">
      <stop stop-color="#00ADEE"/>
      <stop offset="1" stop-color="#0054A5"/>
    </linearGradient>
    <clipPath id="logo_fm93_color_default__clip0">
      <path fill="#fff" d="M0 0h182v124H0z"/>
    </clipPath>
  </defs>
</svg>
