<svg xmlns="http://www.w3.org/2000/svg" viewBox="-1 -1 1508 216" role="img" preserveAspectRatio="xMinYMin" class="dark:hidden w-auto h-5 md:h-6"><path fill="#6f7d93" d="M869.84 139.56c0-43.75 29.74-69 62.47-69s62.47 25.25 62.47 69-29.74 68.79-62.47 68.79-62.47-25.25-62.47-68.79m93.29 0c0-26.32-11.55-43.86-30.81-43.86s-30.81 17.54-30.81 43.86 11.55 43.65 30.81 43.65 30.81-17.33 30.81-43.65m49.9-65.79h25.25l2.35 17.76h.86c11.77-11.45 25.14-20.97 43.11-20.97 28.13 0 40.44 19.04 40.44 52.2v82.37h-30.81v-78.41c0-21.61-6.2-29.74-20.43-29.74-11.55 0-19.15 5.67-29.95 16.37v91.78h-30.81V73.77Zm135.54 97.56V16.22h30.81v156.72c0 7.6 3.42 10.27 6.63 10.27 1.39 0 2.46 0 4.81-.54l3.85 23c-3.74 1.5-8.88 2.67-16.26 2.67-21.82 0-29.85-14.12-29.85-37.01Zm52.93-138c0-10.38 8.13-17.44 19.04-17.44s19.04 7.06 19.04 17.44-8.13 17.44-19.04 17.44-19.04-7.27-19.04-17.44m3.53 40.44h30.81v131.37h-30.81zm54.66 0h25.25l2.35 17.76h.86c11.77-11.45 25.14-20.97 43.11-20.97 28.13 0 40.44 19.04 40.44 52.2v82.37h-30.81v-78.41c0-21.61-6.2-29.74-20.43-29.74-11.55 0-19.15 5.67-29.95 16.37v91.78h-30.81V73.77Zm129.52 65.79c0-42.68 29.63-69 60.55-69 35.52 0 54.24 25.67 54.24 62.37 0 5.88-.64 11.77-1.34 14.98h-83.39c2.57 23.32 17.54 36.59 38.73 36.59 11.23 0 20.86-3.53 30.49-9.52l10.48 19.15c-12.52 8.45-28.35 14.23-45.04 14.23-36.26 0-64.72-25.46-64.72-68.79Zm88.15-12.62c0-20.22-8.99-32.52-26.96-32.52-15.3 0-28.78 11.45-31.45 32.52z"></path><path fill="#14315b" d="M258.47 15.22h30.81v48.89L288 89.46c11.02-10.38 24.07-19.9 42.04-19.9 28.13 0 40.44 19.04 40.44 52.2v82.37h-30.81v-78.41c0-21.61-6.2-29.74-20.43-29.74-11.55 0-19.15 5.67-29.95 16.37v91.78h-30.81V15.22Zm129.58 123.34c0-42.68 29.63-69 60.55-69 35.52 0 54.24 25.67 54.24 62.37 0 5.88-.64 11.77-1.34 14.98h-83.39c2.57 23.32 17.54 36.59 38.73 36.59 11.23 0 20.86-3.53 30.49-9.52l10.48 19.15c-12.52 8.45-28.35 14.23-45.04 14.23-36.26 0-64.72-25.46-64.72-68.79Zm88.14-12.62c0-20.22-8.99-32.52-26.96-32.52-15.3 0-28.78 11.45-31.45 32.52zm41.46-93.6c0-10.38 8.13-17.44 19.04-17.44s19.04 7.06 19.04 17.44-8.13 17.44-19.04 17.44-19.04-7.27-19.04-17.44m3.53 40.43h30.81v131.37h-30.81zm44.04 116.29 14.33-19.58c11.66 9.09 22.95 14.66 36.26 14.66 14.33 0 21.07-6.74 21.07-15.72 0-11.02-14.23-15.94-28.24-21.29-17.22-6.47-36.91-16.37-36.91-38.3s18.4-39.26 47.82-39.26c18.29 0 32.95 7.43 43.65 15.73l-14.12 18.93c-9.2-6.74-18.45-11.45-28.78-11.45-13.21 0-19.47 6.31-19.47 14.55 0 10.38 13.27 14.33 27.49 19.58 17.76 6.63 37.65 15.19 37.65 39.69 0 22.57-17.86 40.76-51.03 40.76-17.97 0-36.91-7.7-49.74-18.29Zm111.39-50.5c0-42.68 29.63-69 60.55-69 35.52 0 54.24 25.67 54.24 62.37 0 5.88-.64 11.77-1.34 14.98h-83.39c2.57 23.32 17.54 36.59 38.73 36.59 11.23 0 20.86-3.53 30.49-9.52l10.48 19.15c-12.52 8.45-28.35 14.23-45.04 14.23-36.26 0-64.72-25.46-64.72-68.79Zm88.15-12.62c0-20.22-8.99-32.52-26.96-32.52-15.3 0-28.78 11.45-31.45 32.52zM114.88 2.89c15.41 7.19 22.08 25.51 14.89 40.92l-71.06 152.4c-7.19 15.41-25.51 22.08-40.92 14.9C2.38 203.92-4.29 185.6 2.9 170.18L73.95 17.79C81.14 2.38 99.46-4.29 114.88 2.9m49.2 97.26c-15.41-7.18-33.73-.52-40.92 14.9l-25.7 55.12c-7.19 15.41-.52 33.74 14.89 40.93s33.73.52 40.92-14.89l25.71-55.12c7.19-15.42.52-33.74-14.9-40.93"></path></svg>